# AST/ASF file generated using VICON BodyLanguage
# -----------------------------------------------
:version 1.10
:name VICON
:units
  mass 1.0
  length 0.45
  angle deg
:documentation
   .ast/.asf automatically generated from VICON data using
   VICON BodyBuilder and BodyLanguage model FoxedUp or BRILLIANT.MOD
:root
   order TX TY TZ RX RY RZ
   axis XYZ
   position 0 0 0  
   orientation 0 0 0 
:bonedata
  begin
     id 1 
     name lhipjoint
     direction 0.612567 -0.751349 0.245431 
     length 2.42285 
     axis 0 0 0  XYZ
  end
  begin
     id 2 
     name lfemur
     direction 0.34202 -0.939693 0  
     length 7.11304  
     axis 0 0 20  XYZ
    dof rx ry rz
    limits (-160.0 20.0)
           (-70.0 70.0)
           (-60.0 70.0)
  end
  begin
     id 3 
     name ltibia
     direction 0.34202 -0.939693 0   
     length 7.84529   
     axis 0 0 20   XYZ
    dof rx
    limits (-10.0 170.0)
  end
  begin
     id 4 
     name lfoot
     direction 0.0779239 -0.214094 0.9737   
     length 1.97176   
     axis -90 7.62852e-016 20   XYZ
    dof rx rz
    limits (-45.0 90.0)
           (-70.0 20.0)
  end
  begin
     id 5 
     name ltoes
     direction 1.53565e-011 -4.21709e-011 1   
     length 0.993197   
     axis -90 7.62852e-016 20   XYZ
    dof rx
    limits (-90.0 20.0)
  end
  begin
     id 6 
     name rhipjoint
     direction -0.665722 -0.709315 0.231701   
     length 2.56642  
     axis 0 0 0  XYZ 
  end
  begin
     id 7 
     name rfemur
     direction -0.34202 -0.939693 0   
     length 7.32108   
     axis 0 0 -20   XYZ
    dof rx ry rz
    limits (-160.0 20.0)
           (-70.0 70.0)
           (-70.0 60.0)
  end
  begin
     id 8 
     name rtibia
     direction -0.34202 -0.939693 0   
     length 7.81254   
     axis 0 0 -20   XYZ
    dof rx
    limits (-10.0 170.0)
 end
 begin
     id 9 
     name rfoot
     direction -0.0832806 -0.228812 0.969902   
     length 2.08278  
     axis -90 -7.62852e-016 -20   XYZ
    dof rx rz
    limits (-45.0 90.0)
           (-20.0 70.0)
  end
  begin
     id 10 
     name rtoes
     direction -1.53589e-011 -4.22086e-011 1   
     length 1.04609   
     axis -90 -7.62852e-016 -20   XYZ
    dof rx
    limits (-90.0 20.0)
  end
  begin
     id 11 
     name lowerback
     direction -0.00506013 0.988403 -0.151766   
     length 2.01978   
     axis 0 0 0   XYZ
    dof rx ry rz
    limits (-20.0 45.0)
           (-30.0 30.0)
           (-30.0 30.0)
  end
  begin
     id 12 
     name upperback
     direction -0.00836389 0.99968 0.0238859   
     length 2.01276   
     axis 0 0 0   XYZ
    dof rx ry rz
    limits (-20.0 45.0)
           (-30.0 30.0)
           (-30.0 30.0)
  end
  begin
     id 13 
     name thorax
     direction -0.00684136 0.995386 0.0957043   
     length 2.07303   
     axis 0 0 0   XYZ
    dof rx ry rz
    limits (-20.0 45.0)
           (-30.0 30.0)
           (-30.0 30.0)
  end
  begin
     id 14 
     name lowerneck
     direction -0.0161045 0.999661 0.0204485   
     length 1.91243   
     axis 0 0 0   XYZ
    dof rx ry rz
    limits (-20.0 45.0)
           (-30.0 30.0)
           (-30.0 30.0)
  end
  begin
     id 15 
     name upperneck
     direction 0.0553583 0.990946 -0.122319   
     length 1.91574   
     axis 0 0 0   XYZ
    dof rx ry rz
    limits (-20.0 45.0)
           (-30.0 30.0)
           (-30.0 30.0)
  end
  begin
     id 16
     name head
     direction 0.0180273 0.998839 -0.0446756  
     length 1.92693  
     axis 0 0 0   XYZ
    dof rx ry rz
    limits (-20.0 45.0)
           (-30.0 30.0)
           (-30.0 30.0)
  end
  begin
     id 17 
     name lclavicle
     direction 0.945646 0.319323 -0.0615358  
     length 4.0076  
     axis 0 0 0   XYZ
    dof ry rz
    limits (-20.0 10.0)
           (0.0 20.0)
  end
  begin
     id 18 
     name lhumerus
     direction 1 -4.48967e-011 -2.79996e-027   
     length 5.64147   
     axis 180 -30 -90   XYZ
    dof rx ry rz
    limits (-60.0 90.0)
           (-90.0 90.0)
           (-90.0 90.0)
  end
  begin
     id 19
     name lradius
     direction 1 -4.48976e-011 -9.5122e-027   
     length 2.86444   
     axis 180 -30 -90   XYZ
    dof rx
    limits (-10.0 170.0)
  end
  begin
     id 20
     name lwrist
     direction 1 -4.48983e-011 -1.24047e-026   
     length 1.43222   
     axis 9.05591e-015 90 90   XYZ
    dof ry
    limits (-180.0 0.0)
 end
  begin
     id 21 
     name lhand
     direction 1 -4.4892e-011 -2.48094e-026   
     length 0.722123   
     axis 1.58305e-014 90 90   XYZ
    dof rx rz
    limits (-90.0 90.0)
           (-45.0 45.0)
  end
  begin
     id 22 
     name lfingers
     direction 1 -4.48895e-011 -4.96187e-026   
     length 0.582194   
     axis 3.1661e-014 90 90   XYZ
    dof rx
    limits (0.0 90.0)
  end
  begin
     id 23
     name lthumb
     direction 0.707107 -6.34961e-011 0.707107   
     length 0.835918   
     axis -90 45 2.85299e-015   XYZ
    dof rx rz
    limits (-45.0 45.0)
           (-45.0 45.0)
  end
  begin
     id 24 
     name rclavicle
     direction -0.932635 0.324218 -0.15835   
     length 3.65819  
     axis 0 0 0   XYZ 
    dof ry rz
    limits (-10.0 20.0)
           (-20.0 0.0)
  end
  begin
     id 25 
     name rhumerus
     direction -1 -4.48965e-011 -4.02296e-027  
     length 5.44729   
     axis 180 30 90   XYZ
    dof rx ry rz
    limits (-90.0 60.0)
           (-90.0 90.0)
           (-90.0 90.0)
  end
  begin
     id 26 
     name rradius
     direction -1 -4.48957e-011 -8.81087e-027   
     length 3.08821   
     axis 180 30 90   XYZ
    dof rx
    limits (-10.0 170.0)
  end
  begin
     id 27 
     name rwrist
     direction -1 -4.49015e-011 -1.24047e-026   
     length 1.5441   
     axis 9.05591e-015 -90 -90   XYZ
    dof ry
    limits (-180.0 0.0)
  end
  begin
     id 28
     name rhand
     direction -1 -4.4891e-011 -2.48094e-026   
     length 0.821049   
     axis 1.58305e-014 -90 -90   XYZ
    dof rx rz
    limits (-90.0 90.0)
           (-45.0 45.0)
  end
  begin
     id 29
     name rfingers
     direction -1 -4.48985e-011 -4.96187e-026   
     length 0.661951   
     axis 3.1661e-014 -90 -90   XYZ
    dof rx
    limits (0.0 90.0)
  end
  begin
     id 30
     name rthumb
     direction -0.707107 -6.34906e-011 0.707107   
     length 0.950433   
     axis -90 -45 -2.85299e-015   XYZ
    dof rx rz
    limits (-45.0 45.0)
           (-45.0 45.0)
  end
:hierarchy
  begin
    root lhipjoint rhipjoint lowerback
    lhipjoint lfemur
    lfemur ltibia
    ltibia lfoot
    lfoot ltoes
    rhipjoint rfemur
    rfemur rtibia
    rtibia rfoot
    rfoot rtoes
    lowerback upperback
    upperback thorax
    thorax lowerneck lclavicle rclavicle
    lowerneck upperneck
    upperneck head
    lclavicle lhumerus
    lhumerus lradius
    lradius lwrist
    lwrist lhand lthumb
    lhand lfingers
    rclavicle rhumerus
    rhumerus rradius
    rradius rwrist
    rwrist rhand rthumb
    rhand rfingers
  end

#!OML:ASF F:\VICON\USERDATA\INSTALL\rory3\rory3.ASF
:FULLY-SPECIFIED
:DEGREES
2963
root 3.57973 17.6244 -0.213523 531.255 91.7081 533.693
lowerback 2.57514 0.191364 -0.047169
upperback -2.95842 0.194174 -2.50108
thorax -4.48985 0.0708135 -2.57388
lowerneck -4.15287 3.09336 -2.05971
upperneck 3.80257 3.96768 8.42155
head 1.71618 2.18096 3.19541
rclavicle 1.09332e-015 1.51076e-014
rhumerus -47.3003 1.1927 -86.2403
rradius 93.9476
rwrist 3.37127
rhand -31.9851 21.4388
rfingers 7.12502
rthumb -5.23433 -8.47654
lclavicle 1.09332e-015 1.51076e-014
lhumerus -35.0588 -24.9337 98.6417
lradius 107.005
lwrist 38.397
lhand -21.4213 -9.78365
lfingers 7.12502
lthumb 4.96759 20.1381
rfemur 3.14638 2.84816 17.8729
rtibia 15.4991
rfoot -19.777 -7.42261
rtoes -8.63135
lfemur 2.23543 1.73435 -17.3304
ltibia 13.1942
lfoot -13.0122 -1.50274
ltoes -2.60679
2964
root 3.58197 17.6241 -0.213864 532.537 91.6803 534.936
lowerback 2.5307 0.191312 -0.0974398
upperback -2.92887 0.192373 -2.52631
thorax -4.43397 0.0717871 -2.57091
lowerneck -4.20927 3.0487 -2.06247
upperneck 3.85834 3.9038 8.44859
head 1.74803 2.15226 3.20717
rclavicle -2.08724e-015 2.38542e-015
rhumerus -47.3035 1.27536 -86.3238
rradius 93.786
rwrist 3.48891
rhand -31.9933 21.6028
rfingers 7.12502
rthumb -5.24224 -8.31238
lclavicle -2.08724e-015 2.38542e-015
lhumerus -35.0617 -24.9688 98.5844
lradius 107.008
lwrist 38.106
lhand -21.5201 -9.84049
lfingers 7.12502
lthumb 4.8722 20.0835
rfemur 3.09962 2.82786 17.8154
rtibia 15.5267
rfoot -19.8239 -7.32732
rtoes -8.2058
lfemur 2.20352 1.73316 -17.3806
ltibia 13.1759
lfoot -13.0182 -1.49665
ltoes -2.84643
2965
root 3.58239 17.6224 -0.214519 533.67 91.6576 536.078
lowerback 2.55015 0.19468 -0.135437
upperback -2.8894 0.194356 -2.56153
thorax -4.40392 0.0738268 -2.58594
lowerneck -4.21776 3.00362 -2.00702
upperneck 3.87923 3.83936 8.44808
head 1.76111 2.12194 3.19624
rclavicle 1.98785e-015 -9.54166e-015
rhumerus -47.2681 1.32417 -86.4163
rradius 93.6098
rwrist 3.61385
rhand -31.9649 21.6204
rfingers 7.12502
rthumb -5.21482 -8.29544
lclavicle 1.98785e-015 -9.54166e-015
lhumerus -35.0771 -25.0386 98.5253
lradius 107.057
lwrist 37.9834
lhand -21.5548 -9.80026
lfingers 7.12502
lthumb 4.83868 20.1245
rfemur 3.12531 2.88045 17.7789
rtibia 15.5206
rfoot -19.9381 -7.26033
rtoes -7.29315
lfemur 2.18957 1.74278 -17.4181
ltibia 13.2065
lfoot -12.9823 -1.54032
ltoes -2.8828
2966
root 3.58241 17.622 -0.21558 533.586 91.6445 536.005
lowerback 2.59775 0.198729 -0.157363
upperback -2.87378 0.198338 -2.54584
thorax -4.41459 0.076558 -2.5578
lowerneck -4.20072 2.95828 -2.07713
upperneck 3.90828 3.77977 8.47497
head 1.76966 2.092 3.2176
rclavicle 7.95139e-016 0
rhumerus -47.3099 1.47278 -86.4576
rradius 93.4863
rwrist 3.75583
rhand -32.1285 21.6695
rfingers 7.12502
rthumb -5.37283 -8.24242
lclavicle 7.95139e-016 0
lhumerus -35.1174 -25.0128 98.5647
lradius 107.084
lwrist 37.91
lhand -21.4668 -9.73836
lfingers 7.12502
lthumb 4.9236 20.1844
rfemur 3.14367 2.82959 17.7681
rtibia 15.505
rfoot -19.9673 -7.26553
rtoes -7.50641
lfemur 2.16981 1.71384 -17.4241
ltibia 13.2624
lfoot -13.0124 -1.52992
ltoes -2.88687
2967
root 3.58247 17.6221 -0.215169 530.79 91.6583 533.218
lowerback 2.65257 0.209345 -0.0956882
upperback -2.87713 0.214739 -2.51816
thorax -4.44839 0.0826022 -2.56535
lowerneck -4.03886 2.92362 -2.10403
upperneck 3.83568 3.73971 8.47447
head 1.71856 2.06683 3.21499
rclavicle -5.96354e-016 -1.19271e-014
rhumerus -47.4079 1.61764 -86.5257
rradius 93.4162
rwrist 3.84279
rhand -32.2594 21.4761
rfingers 7.12502
rthumb -5.49916 -8.43252
lclavicle -5.96354e-016 -1.19271e-014
lhumerus -35.1433 -24.9993 98.5502
lradius 107.119
lwrist 38.0257
lhand -21.4197 -9.63177
lfingers 7.12502
lthumb 4.96909 20.29
rfemur 3.15645 2.8411 17.8687
rtibia 15.4872
rfoot -19.908 -7.35937
rtoes -7.92155
lfemur 2.15509 1.69292 -17.3288
ltibia 13.3206
lfoot -13.0653 -1.52805
ltoes -2.80905
2968
root 3.58393 17.622 -0.215045 528.165 91.6687 530.57
lowerback 2.63939 0.205407 -0.0133792
upperback -2.87196 0.213514 -2.51068
thorax -4.43536 0.0793626 -2.60365
lowerneck -3.89059 2.93282 -2.05056
upperneck 3.76233 3.75542 8.44033
head 1.66807 2.07025 3.1874
rclavicle 2.88238e-015 -1.27222e-014
rhumerus -47.4476 1.76565 -86.5973
rradius 93.3424
rwrist 3.82084
rhand -32.1972 21.2029
rfingers 7.12502
rthumb -5.43917 -8.70734
lclavicle 2.88238e-015 -1.27222e-014
lhumerus -35.1543 -25.0267 98.4949
lradius 107.158
lwrist 38.2019
lhand -21.4515 -9.48325
lfingers 7.12502
lthumb 4.93841 20.4392
rfemur 3.14547 2.88595 17.9649
rtibia 15.4745
rfoot -19.8704 -7.42467
rtoes -7.81447
lfemur 2.10828 1.73171 -17.2351
ltibia 13.3687
lfoot -13.0812 -1.54895
ltoes -2.90816
